HIERARCHY
ROOT Hips
{
	OFFSET 0.00000 0.00000 0.00000
	CHANNELS 6 Xposition Yposition Zposition Zrotation Yrotation Xrotation 
	JOINT LHipJoint
	{
		OFFSET 0 0 0
		CHANNELS 3 Zrotation Yrotation Xrotation
		JOINT LeftUpLeg
		{
			OFFSET 1.58895 -1.83665 0.71753
			CHANNELS 3 Zrotation Yrotation Xrotation
			JOINT LeftLeg
			{
				OFFSET 2.50528 -6.88321 0.00000
				CHANNELS 3 Zrotation Yrotation Xrotation
				JOINT LeftFoot
				{
					OFFSET 2.63244 -7.23257 0.00000
					CHANNELS 3 Zrotation Yrotation Xrotation
					JOINT LeftToeBase
					{
						OFFSET 0.23691 -0.65090 1.72750
						CHANNELS 3 Zrotation Yrotation Xrotation
						End Site
						{
							OFFSET 0.00000 -0.00000 0.92561
						}
					}
				}
			}
		}
	}
	JOINT RHipJoint
	{
		OFFSET 0 0 0
		CHANNELS 3 Zrotation Yrotation Xrotation
		JOINT RightUpLeg
		{
			OFFSET -1.51435 -1.83665 0.71753
			CHANNELS 3 Zrotation Yrotation Xrotation
			JOINT RightLeg
			{
				OFFSET -2.54551 -6.99375 0.00000
				CHANNELS 3 Zrotation Yrotation Xrotation
				JOINT RightFoot
				{
					OFFSET -2.66027 -7.30903 0.00000
					CHANNELS 3 Zrotation Yrotation Xrotation
					JOINT RightToeBase
					{
						OFFSET -0.22981 -0.63138 2.03959
						CHANNELS 3 Zrotation Yrotation Xrotation
						End Site
						{
							OFFSET -0.00000 -0.00000 1.07060
						}
					}
				}
			}
		}
	}
	JOINT LowerBack
	{
		OFFSET 0 0 0
		CHANNELS 3 Zrotation Yrotation Xrotation
		JOINT Spine
		{
			OFFSET -0.02651 1.86275 -0.11152
			CHANNELS 3 Zrotation Yrotation Xrotation
			JOINT Spine1
			{
				OFFSET 0.01019 1.86224 0.04087
				CHANNELS 3 Zrotation Yrotation Xrotation
				JOINT Neck
				{
					OFFSET 0 0 0
					CHANNELS 3 Zrotation Yrotation Xrotation
					JOINT Neck1
					{
						OFFSET -0.01926 1.80512 0.08867
						CHANNELS 3 Zrotation Yrotation Xrotation
						JOINT Head
						{
							OFFSET 0.05516 1.76451 -0.38475
							CHANNELS 3 Zrotation Yrotation Xrotation
							End Site
							{
								OFFSET 0.01592 1.82587 -0.14001
							}
						}
					}
				}
				JOINT LeftShoulder
				{
					OFFSET 0 0 0
					CHANNELS 3 Zrotation Yrotation Xrotation
					JOINT LeftArm
					{
						OFFSET 3.47116 1.51376 0.14491
						CHANNELS 3 Zrotation Yrotation Xrotation
						JOINT LeftForeArm
						{
							OFFSET 4.78095 -0.00000 0.00000
							CHANNELS 3 Zrotation Yrotation Xrotation
							JOINT LeftHand
							{
								OFFSET 3.58615 -0.00000 -0.00000
								CHANNELS 3 Zrotation Yrotation Xrotation
								JOINT LeftFingerBase
								{
									OFFSET 0 0 0
									CHANNELS 3 Zrotation Yrotation Xrotation
									JOINT LeftHandIndex1
									{
										OFFSET 0.65981 -0.00000 0.00000
										CHANNELS 3 Zrotation Yrotation Xrotation
										End Site
										{
											OFFSET 0.53196 -0.00000 0.00000
										}
									}
								}
								JOINT LThumb
								{
									OFFSET 0 0 0
									CHANNELS 3 Zrotation Yrotation Xrotation
									End Site
									{
										OFFSET 0.54008 -0.00000 0.54008
									}
								}
							}
						}
					}
				}
				JOINT RightShoulder
				{
					OFFSET 0 0 0
					CHANNELS 3 Zrotation Yrotation Xrotation
					JOINT RightArm
					{
						OFFSET -3.31725 1.61216 0.35156
						CHANNELS 3 Zrotation Yrotation Xrotation
						JOINT RightForeArm
						{
							OFFSET -4.48913 -0.00000 0.00000
							CHANNELS 3 Zrotation Yrotation Xrotation
							JOINT RightHand
							{
								OFFSET -3.70510 -0.00000 0.00000
								CHANNELS 3 Zrotation Yrotation Xrotation
								JOINT RightFingerBase
								{
									OFFSET 0 0 0
									CHANNELS 3 Zrotation Yrotation Xrotation
									JOINT RightHandIndex1
									{
										OFFSET -0.44914 -0.00000 0.00000
										CHANNELS 3 Zrotation Yrotation Xrotation
										End Site
										{
											OFFSET -0.36211 -0.00000 0.00000
										}
									}
								}
								JOINT RThumb
								{
									OFFSET 0 0 0
									CHANNELS 3 Zrotation Yrotation Xrotation
									End Site
									{
										OFFSET -0.36763 -0.00000 0.36763
									}
								}
							}
						}
					}
				}
			}
		}
	}
}
MOTION
Frames: 8
Frame Time: .0083333
-0.9391 18.1494 5.5523 0 0 0 0 0 0 -21 0 0 0 0 0 0 0 0 0 0 0 0 0 0 21 0 0 0 0 0 0 0 0 0 0 0 0 0 0 0 0 0 0 0 0 0 0 -16 0 0 21 0 0 11 0 0 0 -8 0 0 0 0 0 0 0 0 0 0 0 0 0 0 0 0 0 0 0 0 8 0 0 0 0 0 0 0 0 0 0 0 0 0 0 0 0 0
-0.9391 18.1494 5.5523 -4.3415 -2.9909 -1.0571 0.0000 0.0000 0.0000 -12.0658 -1.5048 19.7247 0.8435 -5.8583 -16.3737 -1.0574 18.4989 -12.2432 0.1193 -2.2269 -6.1330 0.0000 0.0000 0.0000 0.0000 0.0000 0.0000 0.0000 0.0000 0.0000 -0.0000 -0.0000 0.0000 -0.0000 -0.0000 0.0000 2.0057 0.6048 2.9362 1.1809 0.9156 -0.9431 0.0414 0.4337 -2.6030 -0.8153 -1.0369 -11.6025 1.7079 -1.7054 23.3605 0.5300 -0.6872 9.2740 0.0000 -0.0000 0.0000 -94.1568 13.7151 18.8418 22.4759 -33.5107 -6.8467 -0.0000 -0.0000 9.8298 7.7986 -29.7148 -3.8837 -7.1250 0.0000 -0.0000 -13.3752 0.7379 13.5787 0.0000 -0.0000 0.0000 90.5890 -16.9161 23.8787 -23.3014 34.4167 -7.3079 0.0000 0.0000 17.8219 -7.4973 -27.7188 3.5029 7.1250 -0.0000 -0.0000 24.7000 -56.1398 -7.0527
-0.9394 18.1500 5.5521 -4.3266 -2.9999 -1.0716 0.0000 0.0000 0.0000 -12.0730 -1.4296 19.7091 0.8423 -5.8540 -16.3614 -1.0515 18.4476 -12.2014 0.1272 -2.2986 -6.3316 0.0000 0.0000 0.0000 0.0000 0.0000 0.0000 0.0000 0.0000 0.0000 -0.0000 -0.0000 0.0000 -0.0000 -0.0000 0.0000 1.9697 0.6110 2.9099 1.1884 0.9212 -0.9171 0.0694 0.4376 -2.5620 -0.7834 -1.0294 -11.5946 1.6662 -1.6904 23.2998 0.5120 -0.6822 9.2504 0.0000 0.0000 0.0000 -94.1888 13.7444 18.8230 22.6421 -33.6951 -6.9387 -0.0000 -0.0000 9.8580 7.6952 -29.6445 -3.8235 -7.1250 0.0000 -0.0000 -13.4316 0.8183 13.6198 0.0000 0.0000 0.0000 90.5654 -16.8858 23.8906 -23.3137 34.4301 -7.3149 0.0000 0.0000 17.8417 -7.0267 -28.0592 3.3182 7.1250 -0.0000 -0.0000 25.4027 -56.3515 -7.4056
-0.9398 18.1509 5.5517 -4.3350 -3.0113 -1.0824 0.0000 0.0000 0.0000 -12.0557 -1.3683 19.6996 0.8430 -5.8565 -16.3686 -1.0523 18.4394 -12.1383 0.1400 -2.4118 -6.6452 0.0000 0.0000 0.0000 0.0000 0.0000 0.0000 0.0000 0.0000 0.0000 -0.0000 -0.0000 0.0000 -0.0000 -0.0000 0.0000 1.9698 0.6203 2.9079 1.1816 0.9333 -0.9082 0.0620 0.4437 -2.5514 -0.7676 -1.0281 -11.6096 1.6902 -1.6977 23.2926 0.5166 -0.6815 9.2510 0.0000 0.0000 0.0000 -94.1430 13.6596 18.8783 22.4541 -33.4865 -6.8347 -0.0000 -0.0000 9.8148 7.8022 -29.7584 -3.8907 -7.1250 0.0000 -0.0000 -13.3750 0.6951 13.5888 0.0000 0.0000 0.0000 90.6005 -16.8577 23.8613 -23.2996 34.4148 -7.3069 0.0000 0.0000 17.8943 -6.8251 -28.2680 3.2442 7.1250 -0.0000 -0.0000 25.7512 -56.4977 -7.6102
-0.9392 18.1496 5.5509 -4.3346 -2.9953 -1.0979 0.0000 0.0000 0.0000 -12.0568 -1.3775 19.7146 0.8435 -5.8582 -16.3735 -1.0536 18.4387 -12.0962 0.1442 -2.4471 -6.7431 0.0000 0.0000 0.0000 0.0000 0.0000 0.0000 0.0000 0.0000 0.0000 -0.0000 -0.0000 0.0000 -0.0000 -0.0000 0.0000 1.9816 0.6102 2.9332 1.1717 0.9210 -0.9210 0.0453 0.4370 -2.5786 -0.7857 -1.0121 -11.5883 1.7354 -1.6822 23.2833 0.5370 -0.6712 9.2441 -0.0000 0.0000 0.0000 -94.1352 13.6504 18.8704 22.3871 -33.4118 -6.7978 -0.0000 -0.0000 9.7930 7.8361 -29.7764 -3.9099 -7.1250 0.0000 -0.0000 -13.3564 0.6736 13.5739 -0.0000 0.0000 0.0000 90.6205 -16.8709 23.8639 -23.2824 34.3961 -7.2972 0.0000 0.0000 17.9024 -6.8485 -28.3005 3.2589 7.1250 -0.0000 -0.0000 25.7517 -56.5315 -7.6320
-0.9385 18.1491 5.5498 -4.3292 -2.9733 -1.0992 0.0000 0.0000 0.0000 -12.0674 -1.4043 19.7241 0.8452 -5.8638 -16.3897 -1.0546 18.4373 -12.0546 0.1455 -2.4583 -6.7739 0.0000 0.0000 0.0000 0.0000 0.0000 0.0000 0.0000 0.0000 0.0000 -0.0000 -0.0000 0.0000 -0.0000 -0.0000 0.0000 1.9759 0.5901 2.9280 1.1821 0.8943 -0.9265 0.0606 0.4238 -2.5820 -0.8183 -0.9861 -11.5579 1.7482 -1.6413 23.2579 0.5517 -0.6539 9.2292 -0.0000 0.0000 0.0000 -94.1838 13.6341 18.8051 22.3604 -33.3820 -6.7831 -0.0000 -0.0000 9.8153 7.9038 -29.7736 -3.9436 -7.1250 0.0000 -0.0000 -13.3175 0.6685 13.5334 -0.0000 0.0000 0.0000 90.5671 -16.8888 23.9567 -23.2840 34.3979 -7.2981 0.0000 0.0000 17.8643 -6.8732 -28.2943 3.2701 7.1250 -0.0000 -0.0000 25.7229 -56.5310 -7.6223
-0.9382 18.1488 5.5479 -4.3392 -2.9619 -1.1047 0.0000 0.0000 0.0000 -12.0538 -1.3969 19.7218 0.8466 -5.8686 -16.4036 -1.0534 18.4220 -12.0262 0.1367 -2.3833 -6.5663 0.0000 0.0000 0.0000 0.0000 0.0000 0.0000 0.0000 0.0000 0.0000 -0.0000 -0.0000 0.0000 -0.0000 -0.0000 0.0000 1.9801 0.5818 2.9314 1.1958 0.8836 -0.9169 0.0728 0.4186 -2.5743 -0.8127 -0.9771 -11.5822 1.7143 -1.6218 23.2672 0.5412 -0.6477 9.2364 -0.0000 -0.0000 0.0000 -94.2145 13.5974 18.7610 22.3348 -33.3534 -6.7690 -0.0000 -0.0000 9.8626 7.9767 -29.8131 -3.9852 -7.1250 0.0000 -0.0000 -13.2774 0.6215 13.5015 -0.0000 -0.0000 0.0000 90.5236 -16.8823 24.0297 -23.2990 34.4141 -7.3066 0.0000 0.0000 17.8504 -7.1400 -28.1719 3.3845 7.1250 -0.0000 -0.0000 25.3721 -56.4755 -7.4737
-0.9381 18.1481 5.5459 -4.3627 -2.9484 -1.1193 0.0000 0.0000 0.0000 -12.0181 -1.3687 19.7222 0.8471 -5.8703 -16.4085 -1.0486 18.3839 -12.0066 0.1304 -2.3272 -6.4109 0.0000 0.0000 0.0000 0.0000 0.0000 0.0000 0.0000 0.0000 0.0000 -0.0000 -0.0000 0.0000 -0.0000 -0.0000 0.0000 2.0124 0.5818 2.9541 1.1947 0.8852 -0.9083 0.0534 0.4189 -2.5778 -0.7600 -0.9846 -11.6151 1.6548 -1.6292 23.2804 0.5109 -0.6527 9.2464 -0.0000 -0.0000 0.0000 -94.2003 13.6000 18.8540 22.4314 -33.4611 -6.8222 -0.0000 -0.0000 9.9175 7.9407 -29.3528 -3.9115 -7.1250 0.0000 -0.0000 -13.2787 1.0738 13.3945 -0.0000 -0.0000 0.0000 90.5350 -16.8588 24.0361 -23.3122 34.4284 -7.3140 0.0000 0.0000 17.8508 -7.2729 -28.0858 3.4384 7.1250 -0.0000 -0.0000 25.1796 -56.4251 -7.3804
